<svg xmlns="http://www.w3.org/2000/svg" viewBox="0 0 512 512"><title>Artboard 106</title><g id="Young_Woman" data-name="Young Woman"><path d="M298.66667,42.66667s0-21.33334-42.66667-21.33334c-64,0-149.33333,42.66667-149.33333,149.33334v64C106.66667,256,85.33333,277.33333,85.33333,320c0,85.33333,85.33334,106.66667,85.33334,106.66667h128Z" style="fill:#8f492b"/><path d="M213.33333,405.33333H170.66667s-64-21.33333-64-85.33333C106.66667,277.33333,128,256,128,213.33333h85.33333Z" style="fill:#552a1f"/><path d="M176.5625,404.20833C174.58333,403.21875,128,379.125,128,309.33333c0-22.41666,5.4375-34.59375,10.70833-46.35416,5.45834-12.22917,10.625-23.77084,10.625-49.64584h21.33334c0,30.42709-6.625,45.26042-12.47917,58.35417-4.75,10.61458-8.85417,19.78125-8.85417,37.64583,0,56.09375,35.33334,75.05209,36.83334,75.82292Z" style="fill:#8f492b"/><path d="M277.33333,42.66667c42.66667,0,128,0,128,128v64c0,21.33333,21.33334,42.66666,21.33334,85.33333,0,64-64,106.66667-64,106.66667H277.33333Z" style="fill:#552a1f"/><path d="M298.66667,405.33333h42.66666s64-21.33333,64-85.33333C405.33333,277.33333,384,256,384,213.33333H298.66667Z" style="fill:#361200"/><rect x="341.33333" y="192" width="42.66667" height="64" rx="21.33331" ry="21.33331" style="fill:#cb7956"/><rect x="128" y="192" width="42.66667" height="64" rx="21.33331" ry="21.33331" style="fill:#e29971"/><path d="M192,277.33333v64a21.33334,21.33334,0,0,1-21.33333,21.33334h-64A85.33333,85.33333,0,0,0,21.33333,448v42.66667H490.66667V448a85.33333,85.33333,0,0,0-85.33334-85.33333h-64A21.33334,21.33334,0,0,1,320,341.33333v-64Z" style="fill:#e29971"/><rect x="149.33333" y="405.33333" width="85.33333" height="42.66667" rx="21.33331" ry="21.33331" style="fill:#edbda4"/><circle cx="213.33333" cy="426.66667" r="21.33333" style="fill:#f5d9cb"/><path d="M341.33333,362.66667A21.33356,21.33356,0,0,1,320,341.33333v-64H234.66667v128a21.33333,21.33333,0,1,0,42.66666,0h85.33334V362.66667Z" style="fill:#cb7956"/><path d="M405.33333,362.66667h-64a85.33333,85.33333,0,1,1-170.66666,0h-64A85.33255,85.33255,0,0,0,21.33333,448v42.66667H490.66667V448A85.33255,85.33255,0,0,0,405.33333,362.66667Z" style="fill:#caecf6"/><path d="M64,490.66667H42.66667V448a64.07,64.07,0,0,1,64-64v21.33333A42.71555,42.71555,0,0,0,64,448Z" style="fill:#e7f6fa"/><path d="M256,490.66667V469.33333A106.79223,106.79223,0,0,0,362.66667,362.66667H384A128.14,128.14,0,0,1,256,490.66667Z" style="fill:#95daec"/><rect x="149.33333" y="42.66667" width="213.33333" height="298.66656" rx="106.66656" ry="106.66656" style="fill:#edbda4"/><path d="M320,64.48307v84.85026H277.33333v21.33334H320v42.66659a21.33333,21.33333,0,0,1,21.33333,21.33333v.00008A21.33333,21.33333,0,0,1,320,256H256v64h21.33333v19.18359a106.69065,106.69065,0,0,0,85.33334-104.51692V149.33333C362.66667,114.54948,345.76563,83.95443,320,64.48307Z" style="fill:#e29971"/><polygon points="234.667 234.667 234.667 256 277.333 256 277.333 192 320 192 320 170.667 256 170.667 256 234.667 234.667 234.667" style="fill:#cb7956"/><rect x="298.66667" y="192" width="21.33333" height="21.33333" style="fill:#4c2c1a"/><rect x="192" y="192" width="21.33333" height="21.33333" style="fill:#4c2c1a"/><rect x="234.66667" y="277.33333" width="42.66667" height="21.33333" style="fill:#ce464d"/><path d="M149.33333,234.66667V213.33333h21.33344A106.66655,106.66655,0,0,0,277.33333,106.66677v-.0001l21.33334-.20442v21.53781A63.99993,63.99993,0,0,0,362.6666,192h.00007v42.66667L384,213.33333V149.3332A127.99987,127.99987,0,0,0,256.00013,21.33333h-.00026A127.99988,127.99988,0,0,0,128,149.3332v64.00013Z" style="fill:#552a1f"/><path d="M170.66667,213.33333A106.66694,106.66694,0,0,0,277.33333,106.66667l21.33334-.20443V28.77344A127.71226,127.71226,0,0,0,128,149.33333v64l21.33333,21.33334V213.33333Z" style="fill:#8f492b"/><rect x="277.33333" y="85.33333" width="21.33333" height="21.33333" style="fill:#cb7956"/><path d="M170.6875,213.30208H149.33333V191.96875H170.6875A85.40666,85.40666,0,0,0,256,106.66667V64.47917h21.33333v42.1875A106.75439,106.75439,0,0,1,170.6875,213.30208Z" style="fill:#552a1f"/><path d="M149.33333,170.66667H128a128.14,128.14,0,0,1,128-128V64A106.79223,106.79223,0,0,0,149.33333,170.66667Z" style="fill:#cb7956"/><path d="M362.66667,170.66667A42.71555,42.71555,0,0,1,320,128V64h21.33333v64a21.35443,21.35443,0,0,0,21.33334,21.33333Z" style="fill:#8f492b"/></g></svg>