<?xml version="1.0" encoding="UTF-8"?>
<svg xmlns="http://www.w3.org/2000/svg" xmlns:xlink="http://www.w3.org/1999/xlink" width="512px" height="512px" viewBox="0 0 512 512" version="1.1">
<defs>
<linearGradient id="linear0" gradientUnits="userSpaceOnUse" x1="209.6214" y1="493.7607" x2="506.5059" y2="196.8893" gradientTransform="matrix(0.751488,0,0,-1.001984,-13.516224,605.179307)">
<stop offset="0" style="stop-color:rgb(24.705882%,87.843137%,77.254902%);stop-opacity:1;"/>
<stop offset="0.5" style="stop-color:rgb(89.411765%,65.098039%,38.823529%);stop-opacity:1;"/>
<stop offset="0.56" style="stop-color:rgb(89.411765%,61.568627%,40.784314%);stop-opacity:1;"/>
<stop offset="0.67" style="stop-color:rgb(89.803922%,52.156863%,46.666667%);stop-opacity:1;"/>
<stop offset="0.8" style="stop-color:rgb(90.196078%,36.470588%,56.078431%);stop-opacity:1;"/>
<stop offset="0.95" style="stop-color:rgb(90.980392%,14.901961%,69.019608%);stop-opacity:1;"/>
<stop offset="1" style="stop-color:rgb(91.372549%,6.666667%,74.117647%);stop-opacity:1;"/>
</linearGradient>
</defs>
<g id="surface1">
<path style=" stroke:none;fill-rule:nonzero;fill:url(#linear0);" d="M 254.015625 52.136719 C 281.792969 51.882812 309.183594 61.097656 333.503906 79.019531 C 357.886719 96.9375 377.023438 121.34375 390.910156 152.234375 C 405.246094 184.234375 412.351562 219.222656 412.351562 257.367188 C 412.351562 303.957031 402.558594 345.601562 383.039062 382.292969 C 363.519531 418.988281 337.921875 444.414062 306.433594 458.410156 C 303.039062 459.519531 300.414062 458.921875 298.558594 456.703125 C 296.703125 454.570312 295.679688 451.5 295.742188 448.257812 L 295.742188 377.601562 C 295.742188 359.679688 292.160156 346.792969 284.992188 338.945312 C 300.542969 336.726562 312.128906 333.910156 319.679688 330.496094 C 331.457031 324.863281 340.542969 316.5 346.816406 305.238281 C 353.984375 290.644531 357.566406 270.761719 357.503906 245.503906 C 357.503906 234.835938 356.03125 225.621094 353.089844 217.769531 C 350.976562 212.136719 347.007812 205.140625 341.121094 196.777344 C 342.910156 190.292969 344 183.464844 344.257812 176.554688 C 344.640625 163.925781 343.167969 151.382812 339.839844 139.519531 C 335.617188 137.8125 329.726562 138.921875 322.175781 142.847656 C 316.097656 146.347656 310.207031 150.273438 304.511719 154.625 L 296.320312 162.21875 C 283.328125 157.183594 269.824219 154.625 256.257812 154.625 C 242.878906 154.539062 229.632812 157.097656 216.832031 162.21875 L 208.640625 154.625 C 202.753906 150.101562 196.671875 146.175781 190.335938 142.847656 C 182.785156 138.921875 177.089844 137.8125 173.3125 139.519531 C 169.601562 151.210938 168.128906 163.925781 168.960938 176.554688 C 168.960938 184.40625 169.792969 190.890625 171.457031 195.925781 C 167.039062 203.007812 163.328125 210.773438 160.449219 219.136719 C 158.144531 226.132812 156.992188 234.921875 156.992188 245.675781 C 156.992188 270.933594 160.382812 290.558594 167.105469 304.640625 C 172.992188 316.414062 181.824219 325.121094 193.601562 330.667969 C 201.152344 333.996094 212.542969 336.8125 227.648438 339.113281 C 222.207031 345.855469 218.816406 355.328125 217.535156 367.703125 C 210.367188 372.222656 203.390625 373.84375 196.671875 372.652344 C 185.726562 371.542969 177.34375 363.945312 171.457031 349.953125 C 169.023438 343.894531 165.566406 338.773438 161.34375 334.847656 C 158.335938 332.542969 155.136719 330.582031 151.871094 328.960938 L 147.457031 328.105469 C 142.847656 328.105469 140.414062 329.046875 140.222656 331.007812 C 140.03125 332.96875 140.929688 335.105469 143.039062 337.324219 L 146.175781 340.652344 C 149.632812 343.464844 152.640625 347.222656 155.007812 351.574219 C 157.566406 355.585938 159.742188 360.191406 161.34375 365.054688 L 163.839844 371.710938 C 165.824219 379.988281 170.113281 386.902344 175.808594 391.082031 C 181.441406 395.265625 187.710938 397.824219 194.113281 398.675781 C 199.359375 399.1875 204.609375 398.933594 209.855469 397.824219 L 216.832031 396.96875 L 217.472656 448.257812 C 217.535156 451.5 216.449219 454.570312 214.65625 456.703125 C 212.734375 458.921875 210.113281 459.519531 206.785156 458.410156 C 174.785156 444.414062 148.929688 418.988281 129.152344 382.292969 C 109.375 345.601562 99.519531 303.957031 99.519531 257.367188 C 99.519531 219.222656 106.238281 184.40625 119.679688 153.089844 C 132.800781 122.113281 152 96.511719 175.167969 79.105469 C 198.65625 61.097656 224.960938 52.136719 254.015625 52.136719 Z M 153.664062 335.617188 C 154.496094 334.507812 155.839844 334.335938 156.800781 335.1875 C 158.078125 336.042969 158.464844 337.152344 158.078125 338.515625 C 157.695312 339.882812 156.734375 340.054688 155.265625 338.945312 C 153.792969 337.835938 153.28125 336.726562 153.664062 335.617188 Z M 160.640625 342.355469 C 161.472656 341.246094 162.558594 341.503906 163.777344 343.210938 C 165.054688 344.917969 165.246094 346.28125 164.414062 347.390625 C 163.585938 348.5 162.496094 348.246094 161.28125 346.539062 C 160 344.832031 159.808594 343.464844 160.640625 342.355469 Z M 166.910156 353.28125 C 168.0625 352.257812 169.601562 352.597656 170.367188 354.132812 C 170.496094 354.390625 170.625 354.644531 170.6875 354.988281 C 171.96875 357.207031 171.96875 358.910156 170.6875 360.019531 C 170.238281 360.617188 169.726562 360.617188 169.089844 360.019531 C 168.382812 359.425781 167.617188 358.828125 166.847656 358.316406 C 166.078125 355.5 166.078125 353.792969 166.910156 353.28125 Z M 174.527344 365.054688 C 175.039062 364.457031 175.808594 364.289062 176.449219 364.628906 C 178.113281 365.226562 179.457031 367.019531 179.902344 369.238281 C 180.160156 370.089844 180.03125 371.03125 179.585938 371.796875 C 178.304688 373.503906 176.832031 373.164062 175.167969 370.945312 C 174.398438 370.089844 173.953125 368.894531 173.886719 367.617188 C 173.824219 366.675781 174.078125 365.738281 174.527344 365.054688 Z M 184.640625 375.980469 C 185.023438 373.761719 186.304688 372.992188 188.414062 373.84375 C 190.527344 374.699219 191.488281 375.808594 191.230469 377.171875 C 191.105469 378.453125 190.527344 379.5625 189.632812 380.160156 C 188.863281 380.757812 187.902344 380.757812 187.136719 380.160156 C 186.304688 379.648438 185.601562 378.878906 184.960938 378.027344 C 184.320312 377.257812 184.191406 376.492188 184.640625 375.980469 Z M 204.160156 379.308594 C 204.160156 378.710938 203.839844 378.199219 203.199219 377.601562 C 202.304688 376.917969 201.34375 376.660156 200.382812 376.746094 C 198.273438 376.746094 197.246094 377.855469 197.246094 380.074219 C 197.246094 382.292969 198.398438 383.316406 200.703125 383.0625 C 202.945312 382.890625 204.160156 381.609375 204.160156 379.308594 Z M 212.414062 374.355469 C 214.527344 374.355469 215.679688 375.210938 215.871094 376.832031 C 216.0625 378.453125 215.105469 379.902344 213.054688 381.011719 C 212.289062 381.011719 211.585938 380.929688 210.878906 380.585938 C 210.238281 380.332031 209.855469 379.308594 209.601562 377.683594 C 209.34375 376.0625 210.238281 374.871094 212.414062 374.355469 Z M 212.414062 374.355469 "/>
</g>
</svg>
