<?xml version="1.0" encoding="utf-8"?>
<!-- Generator: Adobe Illustrator 22.1.0, SVG Export Plug-In . SVG Version: 6.00 Build 0)  -->
<svg version="1.1" id="Layer_1" xmlns="http://www.w3.org/2000/svg" xmlns:xlink="http://www.w3.org/1999/xlink" x="0px" y="0px"
	 viewBox="0 0 256 256" style="enable-background:new 0 0 256 256;" xml:space="preserve">
<style type="text/css">
	.st0{fill:#D73735;}
	.st1{fill:#F85252;}
	.st2{fill:#EDAF85;}
	.st3{fill:#F7C09A;}
	.st4{fill:#D8D6D7;}
	.st5{fill:#FFFFFF;}
	.st6{fill:#1C868E;}
	.st7{fill:#40C4DF;}
	.st8{fill:#491352;}
	.st9{fill:#56C1B3;}
	.st10{fill:#7BEFE4;}
</style>
<g>
	<path class="st5" d="M247.69,95.6c-3.27,3.28-7.79,5.3-12.79,5.3h-92.46c-14.18,0-22.73-15.55-15.46-27.48
		c3.71-6.11,7.94-6.06,8.25-8.4c0.05-0.32,0.02-0.69-0.1-1.12c-6.41-23.97,11.66-46.8,35.77-46.8c14.26,0,26.62,8.04,32.83,19.83
		c1.66,3.2,3.82-0.18,12.01-0.18c16.08,0,28.33,13.54,27.75,28.55c-0.03,0.94,0.43,1.81,1.22,2.31
		C254.44,73.92,255.8,87.49,247.69,95.6z"/>
	<path class="st4" d="M232.44,100.9h-90c-14.18,0-22.73-15.55-15.46-27.48c3.71-6.11,7.94-6.06,8.25-8.4
		c7.78-2.29,16-3.52,24.52-3.52C190.19,61.5,216.97,77.18,232.44,100.9z"/>
	<path class="st4" d="M216.711,238.9c-1.32,0-178.736,0.011-179.8-0.02c-18.781-0.549-33.9-15.95-33.9-34.94
		c0-12.33,6.38-23.16,16.01-29.38c1.52-0.99,2.41-2.67,2.35-4.48c-1.443-36.048,34.555-64.583,70.82-52.36
		c2.35,0.79,4.89-0.28,6.05-2.47c11.99-22.8,35.89-38.35,63.44-38.35c47.161,0,81.539,44.877,69.15,90.48
		c-0.62,2.28,0.4,4.66,2.48,5.78C265.26,190.449,252.714,238.9,216.711,238.9z"/>
	<path class="st5" d="M216.711,238.9c-1.32,0-178.736,0.011-179.8-0.02c-8.32-6.29-13.73-16.482-13.73-27.78
		c0-12.32,6.37-23.15,16-29.38c1.52-0.98,2.42-2.66,2.36-4.47c-1.446-36.231,34.823-64.579,70.81-52.36
		c2.36,0.79,4.9-0.28,6.05-2.48c14.61-27.747,45.718-43.125,77.12-37.03c29.331,15.741,44.104,49.63,35.31,82
		c-0.62,2.28,0.4,4.66,2.48,5.78C265.26,190.449,252.714,238.9,216.711,238.9z"/>
	<path class="st4" d="M104.111,81.9c0,1.69-0.3,3.31-0.84,4.82c-1.97,5.44-7.19,9.33-13.31,9.33h-72.35
		c-3.91,0-7.45-1.58-10.01-4.14c-2.56-2.56-4.15-6.1-4.15-10.01c0-4.99,2.59-9.37,6.48-11.89c0.62-0.4,0.98-1.08,0.96-1.81
		c-0.34-10.34,6.75-19.33,16.53-21.71c1.65-0.41,3.39-0.63,5.18-0.63c6.44,0,8.08,2.64,9.4,0.14c4.86-9.23,14.53-15.52,25.68-15.52
		c19.07,0,33.02,18.14,27.99,36.62c-0.25,0.92,0.16,1.89,1.01,2.34c2.21,1.2,4.07,2.97,5.37,5.11
		C103.361,76.69,104.111,79.2,104.111,81.9z"/>
	<path class="st5" d="M104.111,81.9c0,1.69-0.3,3.31-0.84,4.82h-69.66c-3.91,0-7.45-1.58-10.01-4.15c-2.56-2.56-4.15-6.09-4.15-10
		c0-4.99,2.59-9.38,6.48-11.9c0.62-0.39,0.98-1.08,0.96-1.81c-0.1-3.06,0.05-7.48,0.53-12.37c1.65-0.41,3.39-0.63,5.18-0.63
		c6.44,0,8.08,2.64,9.4,0.14c4.86-9.23,14.53-15.52,25.68-15.52c19.07,0,33.02,18.14,27.99,36.62c-0.25,0.92,0.16,1.89,1.01,2.34
		c2.21,1.2,4.07,2.97,5.37,5.11C103.361,76.69,104.111,79.2,104.111,81.9z"/>
	<g>
		<g>
			<path class="st7" d="M166.387,213.933c-3.036-3.283-2.836-8.405,0.448-11.44l26.054-24.089l-26.054-24.089
				c-3.284-3.035-3.484-8.157-0.448-11.44c3.036-3.283,8.156-3.484,11.44-0.448l32.484,30.032c3.462,3.201,3.467,8.684,0,11.889
				l-32.484,30.032C174.547,217.414,169.424,217.218,166.387,213.933z"/>
		</g>
		<g>
			<path class="st7" d="M76.866,214.381l-32.484-30.032c-3.462-3.201-3.467-8.684,0-11.889l32.484-30.032
				c3.282-3.036,8.404-2.836,11.44,0.448c3.036,3.283,2.836,8.405-0.448,11.44l-26.054,24.089l26.054,24.089
				c3.284,3.035,3.484,8.157,0.448,11.44C85.266,217.219,80.145,217.413,76.866,214.381z"/>
		</g>
		<g>
			<path class="st7" d="M105.958,215.448c-3.873-2.236-5.198-7.187-2.963-11.059l34.68-60.066c2.236-3.871,7.184-5.199,11.059-2.963
				c3.873,2.236,5.198,7.187,2.963,11.059l-34.68,60.066C114.782,216.356,109.833,217.683,105.958,215.448z"/>
		</g>
	</g>
	<g>
		<path class="st8" d="M234.264,171.401c-1.26-0.681-1.877-2.121-1.501-3.502c6.061-22.259,1.428-46.363-13.346-65.001H234.9
			c19.8,0,27.785-26.016,10.879-36.98c-0.412-0.26-0.279-0.869-0.279-1.4c0-20.207-19.885-34.744-39.292-28.204
			c-0.27,0.093-0.563-0.038-0.708-0.317c-6.79-12.891-20.047-20.898-34.6-20.898c-25.575,0-44.464,24.365-37.7,49.324
			c0.077,0.283-0.045,0.567-0.301,0.707c-7.503,4.055-11.693,12.434-10.274,20.965c-10.849,6.788-19.944,16.414-26.157,28.221
			c-0.709,1.346-2.238,1.98-3.64,1.508c-5.73-1.938-11.725-2.92-17.816-2.92c-31.596,0-56.619,26.337-55.641,57.243
			c0.036,1.103-0.503,2.123-1.44,2.729c-10.594,6.852-16.919,18.462-16.919,31.059c0,20.385,16.584,36.969,36.969,36.969H216.71
			c20.384,0,36.968-16.584,36.968-36.969C253.679,190.34,246.239,177.874,234.264,171.401z M134.804,68.646
			c1.893-1.025,2.821-3.193,2.257-5.271c-6.084-22.45,10.924-44.277,33.839-44.277c13.063,0,24.965,7.189,31.054,18.749
			c1.054,2.037,3.383,2.985,5.535,2.257c17.353-5.85,34.659,7.782,34.002,25.13c-0.053,1.66,0.75,3.18,2.13,4.053
			c13.543,8.782,7.107,29.612-8.722,29.612h-18.872c-23.398-25.581-60.487-30.92-89.64-15.008
			C125.97,77.533,129.288,71.629,134.804,68.646z M216.71,236.902H37.981c-32.763,0-45.368-42.887-17.877-60.669
			c3.75-2.426,3.242-6.209,3.242-7.665c0-28.488,23.178-51.666,51.667-51.666c5.655,0,11.218,0.911,16.536,2.709
			c3.272,1.108,6.83-0.338,8.46-3.434c12.099-22.992,35.73-37.275,61.671-37.275c45.66,0,79.313,43.552,67.224,87.946
			c-0.866,3.184,0.556,6.502,3.458,8.072c10.682,5.772,17.317,16.89,17.317,29.013C249.679,222.112,234.889,236.902,216.71,236.902z
			"/>
		<path class="st8" d="M17.61,98.052h72.346c16.719,0,22.344-22.438,7.671-30.371c0,0-0.025-0.057-0.025-0.057
			c5.384-19.781-9.615-39.146-29.922-39.146c-11.547,0-22.065,6.356-27.488,16.626C24.815,39.908,8.876,51.409,8.876,67.582
			c0,0.226,0.004,0.451-0.028,0.743C-4.6,77.021,1.538,98.052,17.61,98.052z M11.02,71.685c1.215-0.786,1.912-2.115,1.865-3.553
			c-0.435-13.56,12.962-23.656,26.025-19.239c1.885,0.639,3.927-0.188,4.86-1.963c4.691-8.914,13.853-14.452,23.91-14.452
			c17.702,0,30.748,16.884,26.063,34.096c-0.497,1.825,0.318,3.728,1.983,4.627c11.045,5.971,6.811,22.852-5.77,22.852H17.61
			C5.529,94.052,0.887,78.236,11.02,71.685z"/>
		<path class="st8" d="M179.184,140.956c-6.603-6.104-17.291-1.116-16.942,7.808c0.105,2.695,1.254,5.187,3.234,7.018l24.466,22.621
			l-24.465,22.62c-6.54,6.047-2.567,17.148,6.46,17.501c2.757,0.1,5.304-0.88,7.247-2.676l32.484-30.032
			c4.316-3.991,4.317-10.836,0-14.827L179.184,140.956z M176.468,212.91c-2.459,2.275-6.316,2.149-8.613-0.337c0,0,0,0,0,0
			c-2.287-2.475-2.138-6.326,0.338-8.613c28.236-26.107,26.696-24.31,26.696-25.558c0-1.248,1.542,0.551-26.696-25.559
			c-4.077-3.77-1.373-10.567,4.141-10.567c3.289,0,1.171-1.123,36.619,31.649c1.262,1.166,1.956,2.756,1.956,4.478
			C210.908,182.055,211.83,180.217,176.468,212.91z"/>
		<path class="st8" d="M92.449,148.764c0.353-9.015-10.396-13.858-16.942-7.808l-32.484,30.032c-4.316,3.991-4.317,10.836,0,14.827
			l32.484,30.032c6.633,6.13,17.29,1.087,16.942-7.808c-0.105-2.694-1.254-5.187-3.234-7.018l-24.466-22.62l24.465-22.621
			C91.195,153.95,92.344,151.458,92.449,148.764z M60.445,176.934c-0.856,0.792-0.856,2.145,0,2.938
			c28.218,26.089,27.873,24.892,28.007,28.325c0.132,3.358-2.481,6.198-5.854,6.33c-3.489,0.112-1.409,1.126-36.858-31.648
			c-2.608-2.41-2.616-6.534,0-8.952l32.484-30.032c3.97-3.671,10.442-0.69,10.229,4.714
			C88.318,152.049,88.633,150.871,60.445,176.934z"/>
		<path class="st8" d="M149.733,139.625c-4.822-2.779-11.007-1.123-13.79,3.696l-34.681,60.065
			c-2.782,4.821-1.124,11.008,3.696,13.792h0c4.822,2.783,11.009,1.122,13.791-3.696l34.681-60.065
			C156.211,148.596,154.554,142.409,149.733,139.625z M149.965,151.417l-34.68,60.065c-1.681,2.91-5.416,3.912-8.328,2.231
			c-2.91-1.681-3.911-5.416-2.231-8.327l34.681-60.065c1.681-2.909,5.415-3.913,8.327-2.231
			C150.644,144.771,151.645,148.506,149.965,151.417z"/>
	</g>
</g>
</svg>
