<?xml version="1.0" encoding="UTF-8"?>
<svg xmlns="http://www.w3.org/2000/svg" xmlns:xlink="http://www.w3.org/1999/xlink" width="80px" height="80px" viewBox="0 0 80 80" version="1.1">
<g id="surface1">
<path style=" stroke:none;fill-rule:nonzero;fill:rgb(85.490196%,84.313725%,89.803922%);fill-opacity:1;" d="M 78.332031 15 C 78.332031 76.851562 78.582031 72.535156 77.734375 74.398438 C 76.660156 76.789062 74.285156 78.328125 71.667969 78.332031 L 8.332031 78.332031 C 4.652344 78.332031 1.667969 75.347656 1.667969 71.667969 L 1.667969 15 Z M 78.332031 15 "/>
<path style=" stroke:none;fill-rule:nonzero;fill:rgb(92.941176%,92.156863%,94.901961%);fill-opacity:1;" d="M 78.332031 15 C 78.332031 76.851562 78.582031 72.535156 77.734375 74.398438 C 76.875 74.792969 75.945312 75 75 75 L 18.332031 75 C 10.96875 75 5 69.03125 5 61.667969 L 5 15 Z M 78.332031 15 "/>
<path style=" stroke:none;fill-rule:nonzero;fill:rgb(77.647059%,76.470588%,84.705882%);fill-opacity:1;" d="M 66.667969 40 C 66.667969 58.167969 66.667969 57 66.550781 57.632812 C 66.082031 60 63.714844 61.667969 58.332031 61.667969 L 41.667969 61.667969 C 40.8125 61.667969 40 61.304688 39.429688 60.667969 C 38.859375 60.03125 38.589844 59.183594 38.683594 58.332031 L 41.285156 35 L 61.667969 35 C 64.429688 35 66.667969 37.238281 66.667969 40 Z M 66.667969 40 "/>
<path style=" stroke:none;fill-rule:nonzero;fill:rgb(85.490196%,84.313725%,89.803922%);fill-opacity:1;" d="M 66.667969 40 C 66.667969 58.167969 66.667969 57 66.550781 57.632812 C 64 58.566406 62.648438 58.332031 45 58.332031 C 44.144531 58.332031 43.332031 57.96875 42.761719 57.335938 C 42.191406 56.699219 41.921875 55.847656 42.015625 55 L 44.25 35 L 61.667969 35 C 64.429688 35 66.667969 37.238281 66.667969 40 Z M 66.667969 40 "/>
<path style=" stroke:none;fill-rule:nonzero;fill:rgb(77.647059%,76.470588%,84.705882%);fill-opacity:1;" d="M 41.300781 35 C 38.699219 58.332031 39.199219 53.765625 38.699219 58.332031 L 18.332031 58.332031 C 15.570312 58.332031 13.332031 56.09375 13.332031 53.332031 L 13.332031 36.667969 C 13.335938 34.464844 14.777344 32.523438 16.882812 31.882812 C 17.917969 31.667969 16.667969 31.667969 38.332031 31.667969 C 39.183594 31.671875 39.992188 32.035156 40.558594 32.671875 C 41.125 33.308594 41.394531 34.152344 41.300781 35 Z M 41.300781 35 "/>
<path style=" stroke:none;fill-rule:nonzero;fill:rgb(85.490196%,84.313725%,89.803922%);fill-opacity:1;" d="M 41.300781 35 L 39.066406 55 L 21.667969 55 C 18.90625 55 16.667969 52.761719 16.667969 50 C 16.667969 32.035156 16.566406 32.917969 16.882812 31.882812 C 17.917969 31.667969 16.667969 31.667969 38.332031 31.667969 C 39.183594 31.671875 39.992188 32.035156 40.558594 32.671875 C 41.125 33.308594 41.394531 34.152344 41.300781 35 Z M 41.300781 35 "/>
<path style=" stroke:none;fill-rule:nonzero;fill:rgb(43.529412%,67.058824%,90.196078%);fill-opacity:1;" d="M 78.332031 8.332031 L 78.332031 15 L 1.667969 15 L 1.667969 8.332031 C 1.671875 5.714844 3.210938 3.339844 5.601562 2.265625 C 7.464844 1.417969 2.417969 1.667969 71.667969 1.667969 C 75.347656 1.667969 78.332031 4.652344 78.332031 8.332031 Z M 78.332031 8.332031 "/>
<path style=" stroke:none;fill-rule:nonzero;fill:rgb(50.980392%,73.72549%,95.686275%);fill-opacity:1;" d="M 78.332031 8.332031 L 78.332031 11.667969 L 10 11.667969 C 7.238281 11.667969 5 9.429688 5 6.667969 C 4.832031 5.171875 5.039062 3.660156 5.601562 2.265625 C 6.457031 1.871094 7.390625 1.667969 8.332031 1.667969 L 71.667969 1.667969 C 75.347656 1.667969 78.332031 4.652344 78.332031 8.332031 Z M 78.332031 8.332031 "/>
<path style=" stroke:none;fill-rule:nonzero;fill:rgb(25.882353%,35.686275%,44.705882%);fill-opacity:1;" d="M 71.667969 10 C 70.988281 10.007812 70.371094 9.605469 70.109375 8.976562 C 69.847656 8.351562 69.992188 7.628906 70.472656 7.152344 C 70.953125 6.671875 71.675781 6.535156 72.300781 6.800781 C 73.023438 7.109375 73.433594 7.882812 73.28125 8.65625 C 73.128906 9.429688 72.453125 9.992188 71.667969 10 Z M 71.667969 10 "/>
<path style=" stroke:none;fill-rule:nonzero;fill:rgb(25.882353%,35.686275%,44.705882%);fill-opacity:1;" d="M 65 10 C 64.382812 10 63.816406 9.660156 63.527344 9.117188 C 63.234375 8.570312 63.269531 7.910156 63.617188 7.398438 C 63.894531 6.984375 64.34375 6.714844 64.839844 6.667969 C 65.339844 6.617188 65.832031 6.796875 66.183594 7.148438 C 66.664062 7.625 66.808594 8.347656 66.550781 8.972656 C 66.289062 9.597656 65.675781 10.003906 65 10 Z M 65 10 "/>
<path style=" stroke:none;fill-rule:nonzero;fill:rgb(25.882353%,35.686275%,44.705882%);fill-opacity:1;" d="M 58.332031 10 C 57.496094 10.003906 56.785156 9.386719 56.671875 8.554688 C 56.5625 7.722656 57.085938 6.941406 57.894531 6.722656 C 58.703125 6.507812 59.546875 6.925781 59.867188 7.699219 C 60.078125 8.210938 60.019531 8.796875 59.710938 9.257812 C 59.40625 9.71875 58.886719 9.996094 58.332031 10 Z M 58.332031 10 "/>
<path style=" stroke:none;fill-rule:nonzero;fill:rgb(25.882353%,35.686275%,44.705882%);fill-opacity:1;" d="M 38.332031 10 L 8.332031 10 C 7.414062 10 6.667969 9.253906 6.667969 8.332031 C 6.667969 7.414062 7.414062 6.667969 8.332031 6.667969 L 38.332031 6.667969 C 39.253906 6.667969 40 7.414062 40 8.332031 C 40 9.253906 39.253906 10 38.332031 10 Z M 38.332031 10 "/>
<path style=" stroke:none;fill-rule:nonzero;fill:rgb(25.882353%,35.686275%,44.705882%);fill-opacity:1;" d="M 31.667969 40 L 28.332031 40 C 28.332031 39.078125 27.585938 38.332031 26.667969 38.332031 C 25.746094 38.332031 25 39.078125 25 40 L 21.667969 40 C 20.746094 40 20 40.746094 20 41.667969 C 20 42.585938 20.746094 43.332031 21.667969 43.332031 L 28.101562 43.332031 C 27.875 44.273438 27.453125 45.152344 26.867188 45.917969 L 25.917969 45.285156 C 25.167969 44.894531 24.246094 45.125 23.769531 45.820312 C 23.292969 46.519531 23.414062 47.460938 24.050781 48.015625 C 23.183594 48.367188 21.265625 48.617188 21.714844 50.398438 C 22.265625 52.617188 25.300781 51.382812 27.167969 50.117188 C 29.035156 51.351562 29.316406 51.667969 30 51.667969 C 30.730469 51.660156 31.371094 51.179688 31.582031 50.480469 C 31.792969 49.78125 31.523438 49.023438 30.917969 48.617188 L 29.632812 47.75 C 30.609375 46.449219 31.261719 44.9375 31.535156 43.332031 C 32.453125 43.371094 33.230469 42.652344 33.265625 41.734375 C 33.304688 40.8125 32.585938 40.035156 31.667969 40 Z M 31.667969 40 "/>
<path style=" stroke:none;fill-rule:nonzero;fill:rgb(25.882353%,35.686275%,44.705882%);fill-opacity:1;" d="M 59.898438 54.417969 C 54.484375 40 54.882812 40 53.332031 40 C 51.785156 40 52.148438 40.082031 46.765625 54.417969 C 46.445312 55.28125 46.882812 56.246094 47.75 56.566406 C 48.617188 56.890625 49.578125 56.449219 49.898438 55.582031 L 50.734375 53.332031 L 55.933594 53.332031 C 56.75 55.515625 56.917969 56.667969 58.332031 56.667969 C 58.878906 56.667969 59.394531 56.402344 59.707031 55.953125 C 60.019531 55.503906 60.089844 54.929688 59.898438 54.417969 Z M 51.984375 50 L 53.332031 46.417969 L 54.683594 50 Z M 51.984375 50 "/>
</g>
</svg>
